<svg width="61" height="60" viewBox="0 0 61 60" fill="none" xmlns="http://www.w3.org/2000/svg">
<path d="M42.8666 1.21057C42.8666 1.21057 42.9087 1.20295 42.9568 1.27543C43.254 1.42669 43.5031 1.50547 43.7523 1.58424C43.7523 1.58424 43.7982 1.57804 43.8393 1.65324C44.2922 1.92396 44.704 2.11947 45.1159 2.31498C45.1159 2.31498 45.094 2.3325 45.0962 2.39284C45.1724 2.75374 45.2465 3.05432 45.3158 3.3358C45.7417 3.2807 46.0628 3.23917 46.3838 3.19764C46.3838 3.19764 46.3549 3.22621 46.3776 3.26014C46.4618 3.31686 46.5233 3.33966 46.5848 3.36246C46.5848 3.36246 46.5552 3.38356 46.5708 3.42119C46.6483 3.47978 46.71 3.50075 46.7718 3.52172C46.7718 3.52172 46.7143 3.58355 46.7447 3.60798C46.8369 3.64894 46.8987 3.66547 46.9606 3.682C46.9606 3.682 46.9575 3.69836 46.9581 3.75093C47.0199 3.82017 47.0811 3.83683 47.1423 3.8535C47.1423 3.8535 47.1414 3.87346 47.14 3.92633C47.2357 4.02924 47.3327 4.07928 47.4298 4.12933C47.4298 4.12933 47.4231 4.13445 47.4306 4.18978C47.5548 4.32684 47.6714 4.40858 47.7881 4.49032C47.7881 4.49032 47.7823 4.49362 47.7887 4.54904C47.8813 4.64919 47.9675 4.69393 48.0537 4.73867C48.0537 4.73867 48.0614 4.7611 48.054 4.81845C48.1041 4.89398 48.1616 4.91216 48.219 4.93033C48.219 4.93033 48.223 4.94872 48.2196 5.0046C48.2748 5.08568 48.3333 5.11088 48.3919 5.13607C48.3919 5.13607 48.3807 5.16249 48.3691 5.22083C48.6757 5.64414 48.9939 6.00911 49.3121 6.37408C49.3121 6.37408 49.2931 6.38897 49.2892 6.44615C49.3877 6.60861 49.4901 6.7139 49.5924 6.81918C49.5924 6.81918 49.5774 6.82506 49.5817 6.87671C49.6521 7.00915 49.7183 7.08993 49.7845 7.17071C49.7845 7.17071 49.7611 7.18358 49.7664 7.23227C49.8395 7.3633 49.9071 7.44563 49.9748 7.52797C49.9748 7.52797 49.9549 7.53181 49.9504 7.59358C49.9908 7.82587 50.0112 8.00783 50.0844 8.16515C50.9173 9.95385 51.5408 11.7999 51.5665 13.7964C51.5852 15.2442 51.56 16.6925 51.4787 18.141C51.1019 18.233 50.8007 18.3246 50.4995 18.4161C50.736 18.6849 50.9725 18.9538 51.2079 19.2817C51.2037 19.4196 51.2006 19.4983 51.1291 19.5783C50.5708 19.6747 50.1484 19.8122 49.5729 19.6437C48.8013 19.418 47.9143 19.5675 47.0783 19.5966C46.9061 19.6025 46.6005 19.778 46.5927 19.8914C46.5115 21.0822 45.5729 21.0152 44.7891 21.1425C44.2471 21.2305 43.8411 21.1177 43.934 20.3911C43.9606 20.1831 43.7461 19.9442 43.7275 19.9041C43.1355 20.3268 42.7308 20.8389 42.2665 20.9004C41.3271 21.0248 40.9962 21.3747 41.507 22.1602C41.9204 22.7959 41.8708 23.2999 41.4439 23.8107C40.8988 23.6564 40.2754 23.256 39.9262 23.4243C38.9928 23.8744 38.3405 23.6544 37.7103 22.918C37.7108 22.7697 37.7061 22.6849 37.7064 22.6011C37.7113 22.6022 37.7088 22.612 37.7789 22.6194C38.0784 22.6803 38.3099 22.7803 38.5364 22.7701C38.6746 22.7638 38.8051 22.588 38.9391 22.4884C38.8285 22.3539 38.718 22.2194 38.618 22.0221C38.6814 21.7557 38.734 21.5521 38.7892 21.3571C38.7917 21.3657 38.7758 21.3578 38.8383 21.357C39.05 21.1232 39.1992 20.8904 39.4139 20.658C39.9765 20.5776 40.4736 20.4967 41.1256 20.3906C40.8142 19.9359 40.6528 19.7002 40.5205 19.507C40.2136 19.667 39.9547 19.8019 39.6946 19.8599C39.7291 19.5791 39.7812 19.3766 39.798 19.1713C39.904 17.8767 40.0881 16.5662 39.1516 15.4549C39.1597 15.4538 39.148 15.4653 39.1549 15.3955C38.9754 15.0715 38.7889 14.8175 38.611 14.5592C38.6195 14.555 38.609 14.5709 38.6088 14.5113C38.5272 14.386 38.4458 14.3203 38.3972 14.2574C38.4302 14.2601 38.364 14.2601 38.384 14.1973C38.1349 13.9184 37.8658 13.7023 37.5655 13.4349C37.4736 13.2469 37.4127 13.1103 37.3485 12.9088C37.2553 12.5116 37.1655 12.1792 37.0358 11.6991C36.7531 11.7169 36.1925 11.921 35.7998 11.7468C34.3506 11.1038 32.9538 12.1867 31.5357 11.7808C31.5266 11.7782 31.4726 11.9331 31.3586 12.0189C30.7907 12.0209 30.3038 12.0184 29.7783 11.9731C29.531 11.9591 29.3221 11.9878 29.029 12.0205C28.0416 12.0203 27.1383 12.0161 26.1808 11.9655C24.0668 11.7785 22.0071 11.6379 19.9381 11.4367C19.7701 11.2242 19.6114 11.0722 19.5304 10.9947C19.4943 9.84982 21.0432 11.2537 20.9596 9.95749C20.7922 9.92966 20.6497 9.88732 20.5066 9.88524C19.7178 9.87383 19.0444 9.85881 18.7276 8.84203C18.472 8.02148 17.3002 8.01197 16.6487 8.64984C16.4655 8.82923 16.1274 8.85048 15.8604 8.94427C15.8183 8.71159 15.6987 8.46069 15.7483 8.24954C15.9203 7.51752 15.6123 7.48536 15.0336 7.65711C13.8405 8.01115 13.8362 7.9968 13.6865 6.82752C12.8912 7.25331 12.5026 6.7035 12.1553 6.14954C11.8758 6.24017 11.6462 6.3146 11.4526 6.37737C11.3204 5.94622 11.2099 5.58615 11.0498 5.06428C10.6788 5.52171 10.4512 5.80245 10.201 6.11095C9.47026 5.36435 10.547 5.1593 10.5243 4.39841C9.81732 4.32038 9.06956 4.23208 8.32042 4.15739C7.8971 4.11518 7.47154 4.0719 7.047 4.07206C6.63147 4.07222 6.12946 3.99107 5.8199 4.1882C5.30238 4.51776 4.90779 5.04038 4.43462 5.50826C4.15242 5.11288 4.00573 4.90736 3.8882 4.74268C3.218 4.92629 2.62121 5.08978 1.79092 5.31724C2.74755 5.6797 3.68314 5.23711 4.03622 5.93786C3.20425 7.19019 2.49029 8.2649 1.83204 9.25574C1.30539 9.0272 0.837495 8.82415 0.366534 8.53717C0.362665 6.0119 0.375884 3.57043 0.350729 1.12935C0.344777 0.552753 0.523459 0.33179 1.11354 0.354169C2.00488 0.387969 2.89883 0.353065 3.87508 0.349609C15.36 0.351917 26.7616 0.349015 38.1631 0.362036C38.6575 0.362603 39.1537 0.498878 39.6457 0.590556C40.7205 0.790869 41.7931 1.00317 42.8666 1.21057ZM44.944 19.4264C45.1096 19.6017 45.2751 19.7771 45.4407 19.9524C45.5407 19.9336 45.6407 19.9149 45.7406 19.8961C45.775 19.5138 45.8093 19.1314 45.8437 18.7491C45.5388 18.9309 45.2339 19.1126 44.944 19.4264Z" fill="#0263E6"/>
<path d="M37.7051 22.9814C38.3405 23.6543 38.9928 23.8743 39.9262 23.4243C40.2754 23.2559 40.8988 23.6564 41.4439 23.8107C41.8708 23.2999 41.9204 22.7959 41.507 22.1602C40.9962 21.3746 41.3271 21.0247 42.2666 20.9003C42.7309 20.8389 43.1355 20.3267 43.7276 19.904C43.7462 19.9442 43.9607 20.183 43.9341 20.391C43.8411 21.1177 44.2472 21.2304 44.7891 21.1424C45.5729 21.0152 46.5116 21.0822 46.5928 19.8913C46.6005 19.7779 46.9061 19.6025 47.0783 19.5965C47.9143 19.5674 48.8013 19.4179 49.5729 19.6437C50.1484 19.8121 50.5708 19.6747 51.1313 19.6483C51.2061 19.8568 51.2103 19.9965 51.2146 20.1362C51.2146 20.1362 51.2029 20.2168 51.1512 20.2978C50.898 20.7663 50.6965 21.1537 50.4422 21.567C50.3605 21.8233 50.3317 22.0536 50.2656 22.3347C50.1101 22.5789 49.9932 22.7732 49.8731 22.9656C49.4179 23.6951 48.9616 24.424 48.474 25.1105C48.3454 25.1608 48.2486 25.2538 48.1525 25.4101C47.914 25.789 47.6749 26.1046 47.4036 26.376C47.273 26.4244 47.1744 26.517 47.0491 26.6667C47.0137 26.881 47.0052 27.0383 46.9966 27.1956C46.9966 27.1956 46.9766 27.2066 46.9083 27.2037C46.6182 27.4176 46.3964 27.6344 46.1745 27.8513C46.1745 27.8513 46.1668 27.8391 46.1093 27.8443C45.732 28.0248 45.4123 28.2002 45.036 28.3723C44.7169 28.4277 44.4543 28.4862 44.1177 28.549C43.5546 28.4974 43.0655 28.4416 42.5601 28.3138C41.3981 28.2293 40.2517 28.1949 39.1073 28.2285C38.9395 28.2334 38.7813 28.5615 38.5354 28.7436C36.7186 28.8657 34.985 28.9843 33.1897 29.0955C32.9237 29.1544 32.7195 29.2205 32.4503 29.3168C31.4924 29.5074 30.5917 29.6338 29.7089 29.8381C28.8444 30.038 27.9983 30.3172 27.1442 30.5616C27.1442 30.5616 27.1341 30.5416 27.0661 30.5438C26.0879 30.7282 25.1778 30.9105 24.258 31.0272C23.7226 30.3578 23.5405 30.4114 23.1552 31.3289C22.6637 31.5197 22.2056 31.6551 21.7294 31.7603C21.664 31.7565 21.6168 31.7828 21.5264 31.8555C21.2742 31.9298 21.0652 31.9576 20.8184 31.9327C20.3759 31.7113 19.9712 31.5425 19.4548 31.3273C19.5235 31.8171 19.5601 32.0777 19.5951 32.3359C19.5936 32.3335 19.5944 32.3365 19.528 32.3269C18.2537 31.7523 17.0459 31.1872 15.6611 30.5394C15.6631 30.5469 15.5952 30.2987 15.5273 30.0505C15.4942 30.1241 15.461 30.1975 15.4278 30.271C14.6471 30.085 13.8751 29.8332 13.0836 29.7285C11.9332 29.5764 10.8189 28.8161 9.60903 29.9233C8.84206 30.6251 8.33591 30.3411 7.79978 29.4585C7.21181 28.4904 5.94932 28.0661 4.84178 28.2778C3.36365 28.5603 1.85956 28.707 0.36379 28.8282C0.363187 27.4867 0.365401 26.229 0.398678 24.9538C0.408433 24.8842 0.387126 24.8321 0.362924 24.701C0.362102 24.1996 0.364185 23.7772 0.397494 23.3378C0.440767 23.3006 0.46772 23.2693 0.462404 23.2622C0.435484 23.2263 0.400191 23.1968 0.364919 23.0812C0.364064 21.8575 0.366136 20.7176 0.443968 19.5778C0.770619 19.4168 1.03033 19.2676 1.26995 19.0911C1.51811 18.9083 1.71731 18.6083 1.98993 18.5199C2.59328 18.3242 3.28771 18.5353 3.79742 17.8721C3.99744 17.6119 4.62898 17.6311 5.06487 17.6274C5.26964 17.6257 5.57566 17.8295 5.65402 18.0164C5.72958 18.1966 5.64302 18.5416 5.50002 18.696C5.21873 18.9995 4.84896 19.221 4.51633 19.4761C5.38104 20.5545 6.43718 20.3972 7.27263 19.6216C7.57574 19.3402 8.0654 19.0314 8.42058 19.0819C9.16188 19.1874 9.73558 19.1969 9.97298 18.2569C10.4249 18.6036 10.7841 18.8792 11.2868 19.2648C10.8624 19.54 10.5791 19.8446 10.2496 19.9078C9.80046 19.994 9.45832 20.1135 9.55004 20.6067C9.61896 20.9773 9.7682 21.5315 10.0182 21.6205C10.3462 21.7373 10.8374 21.5373 11.2042 21.3608C11.5239 21.207 11.7682 20.8967 12.1153 20.6475C12.3778 20.3657 12.6574 20.1158 12.7413 19.8118C12.8386 19.4595 12.7641 19.0596 12.754 18.6173C12.6411 18.4541 12.5522 18.2896 12.4333 18.264C11.6108 18.0868 11.4726 17.539 11.4913 16.7935C11.5128 15.9356 11.3736 15.0743 11.3798 14.215C11.3852 13.4697 11.4855 12.7239 11.5727 11.9816C11.585 11.8764 11.7604 11.7904 11.8035 11.7495C12.2409 11.9394 12.6029 12.0967 13.0393 12.2862C13.01 11.7908 12.9935 11.5112 12.9839 11.3494C15.3629 11.3999 17.6551 11.4485 19.9474 11.4972C22.0071 11.6378 24.0669 11.7784 26.0967 11.9726C22.1492 12.0271 18.2316 12.0231 14.3141 12.0377C13.979 12.0389 13.6445 12.1639 13.2956 12.3054C13.2305 12.8178 13.1331 13.2568 13.138 13.6946C13.1485 14.6421 13.2337 15.5886 13.2485 16.5361C13.2868 18.9814 13.3035 21.427 13.3731 23.9304C13.473 24.0089 13.5286 24.0478 13.5843 24.0478C20.5822 24.0531 27.5804 24.0852 34.5778 24.0236C35.5405 24.0151 36.6654 23.9373 37.3205 22.9486C37.3343 22.9816 37.3045 22.9152 37.3691 22.9379C37.5242 22.9674 37.6147 22.9744 37.7051 22.9814Z" fill="#0260E1"/>
<path d="M35.2054 42.3764C35.2054 42.3764 35.2183 42.2879 35.2921 42.2387C35.7599 42.2608 36.1541 42.3322 36.4944 42.3939C36.5888 42.0727 36.7025 41.6859 36.8162 41.2991C36.9051 41.3263 36.994 41.3535 37.083 41.3807C37.083 41.6246 37.083 41.8686 37.083 42.1846C37.7889 41.8911 37.8388 41.4709 37.5749 40.8913C37.3996 40.5061 37.3066 40.0835 37.1768 39.6776C37.1768 39.6776 37.1857 39.6908 37.2434 39.6844C37.5318 39.3589 37.7626 39.0399 37.9933 38.7208C37.9933 38.7208 38.0095 38.7193 38.0743 38.7353C38.5999 38.4661 39.0607 38.1807 39.5545 37.9388C39.7223 37.9756 39.8573 37.9689 39.9922 37.9623C39.9154 37.8221 39.8367 37.7864 39.7646 37.7967C39.6805 37.8088 39.6022 37.861 39.5212 37.8217C39.5157 37.5499 39.5103 37.3523 39.505 37.1546C39.505 37.1546 39.5187 37.1728 39.5797 37.1717C39.8029 36.9664 39.9651 36.762 40.1274 36.5576C40.1274 36.5576 40.1479 36.546 40.2195 36.5699C40.5339 36.649 40.7767 36.7044 40.9363 36.7407C41.1362 36.2334 41.3084 35.7964 41.4805 35.3594C41.4805 35.3594 41.4905 35.3728 41.5273 35.3565C41.5996 35.2893 41.635 35.2385 41.6705 35.1876C41.6705 35.1876 41.6749 35.2008 41.7364 35.1994C42.8856 34.7555 43.7946 34.0999 44.3665 33.0426C44.3665 33.0426 44.3702 33.0469 44.4348 33.046C45.3472 32.5485 46.2151 32.0826 47.0343 31.5426C47.4464 31.2709 47.7698 30.8647 48.1334 30.5193C48.1334 30.5193 48.14 30.5322 48.2052 30.5303C48.6886 30.396 49.1042 30.2546 49.5258 30.1343C49.8434 30.0437 50.2076 29.8476 50.4834 29.9286C51.4103 30.2009 52.3244 30.5374 53.2044 30.9356C53.4716 31.0565 53.6122 31.4571 53.9222 31.8824C54.3622 32.0754 55.0282 32.3735 55.7005 32.6565C55.8036 32.6999 55.9359 32.6738 56.0547 32.6798C56.0547 32.6798 56.043 32.6867 56.0448 32.7484C56.3664 33.1089 56.6862 33.4077 57.006 33.7065C57.006 33.7065 56.9751 33.7615 56.9732 33.7995C57.2344 34.7527 58.2238 35.3659 58.0632 36.4645C58.0517 36.5436 58.1765 36.6772 58.2694 36.7319C59.2008 37.2799 59.2865 38.2354 59.399 39.1304C59.205 39.1978 59.0657 39.2879 58.9265 39.378C59.1028 39.482 59.2791 39.586 59.525 39.7058C59.6672 39.9005 59.8302 40.0991 59.7964 40.255C59.6682 40.8465 59.4245 41.4163 59.333 42.0109C59.2947 42.2602 59.5286 42.5513 59.6387 42.8234C59.8147 42.6981 59.9906 42.5728 60.172 42.4437C60.172 42.7496 60.172 43.1061 60.172 43.5422C60.1709 44.0469 60.1698 44.4719 60.1003 44.8998C59.4387 45.1755 59.4624 45.4752 59.9929 45.8726C59.93 46.5545 59.867 47.1609 59.7401 47.762C59.1288 47.5349 58.6088 47.3653 58.4513 46.6233C58.3818 46.2956 57.8621 45.9629 57.4772 45.8204C56.0102 45.2772 54.587 45.8271 53.4965 46.6205C52.4002 47.4183 51.4935 47.4074 50.37 47.0156C50.0726 46.9119 49.6216 46.9008 49.3754 47.0579C48.2487 47.7767 48.2187 47.6461 47.0959 47.0773C46.0728 46.5589 45.2749 44.9912 43.6565 46.1849C43.7308 45.7476 43.8235 45.4637 43.8087 45.1855C43.8006 45.0325 43.6119 44.889 43.5046 44.7412C43.3783 44.8375 43.2425 44.9237 43.1277 45.0322C42.8758 45.2703 42.513 45.7702 42.4102 45.7204C41.9997 45.5214 41.5764 45.2136 41.3337 44.8337C40.8974 44.1509 40.4904 43.6014 39.5514 43.6089C39.1495 43.6121 38.7312 43.2732 38.3472 43.0446C38.1695 42.9388 38.0561 42.7249 37.9159 42.5628C37.0389 43.448 36.313 44.3636 35.1439 44.6847C34.9522 44.334 34.8121 44.0779 34.6731 43.7553C34.8513 43.2514 35.0284 42.8139 35.2054 42.3764ZM39.5791 38.3539C39.4773 38.3504 39.3753 38.3438 39.2741 38.3501C39.2672 38.3505 39.2662 38.4469 39.2624 38.4987C39.3604 38.4817 39.4585 38.4647 39.5791 38.3539Z" fill="#025CDD"/>
<path d="M56.2667 55.1816C56.1739 55.2786 56.081 55.3757 55.8705 55.4876C55.5561 55.7441 55.3592 55.9858 55.1624 56.2275C55.1624 56.2275 55.1451 56.2141 55.0831 56.2166C54.707 56.1809 54.3927 56.1427 54.0785 56.1044C54.1213 56.175 54.1642 56.2456 54.207 56.3162C53.7804 56.7101 53.4105 57.2085 52.9157 57.4767C51.7819 58.0912 50.6116 58.6572 49.4082 59.1178C48.6579 59.4049 47.8215 59.5964 47.0217 59.6035C42.1454 59.6468 37.2685 59.6249 32.3919 59.6246C32.2124 59.6246 32.0305 59.6405 31.8538 59.6179C31.275 59.5439 30.8554 58.5325 31.2196 58.0793C31.8224 57.3292 32.0673 56.5232 31.6821 55.59C31.4835 55.1088 31.0588 54.5559 31.165 54.1466C31.4212 53.1592 30.8038 51.9076 32.0475 51.1861C32.3573 51.3567 32.5993 51.5257 32.9221 51.751C32.9726 51.5031 33.0529 51.3136 33.0417 51.1297C32.98 50.1205 33.2398 49.8985 34.093 50.3715C34.8879 50.8122 35.5611 51.5715 36.3974 51.8165C37.8967 52.2558 38.8154 53.8525 40.5271 53.7738C40.5515 53.7726 40.5785 53.8017 40.6022 53.8195C41.4188 54.4304 42.094 54.2237 42.7344 53.5067C42.8834 53.34 43.2162 53.23 43.4437 53.2587C44.5873 53.4029 45.7218 53.6182 46.8641 53.7749C47.5322 53.8666 48.3692 54.1733 48.8497 53.8964C49.9736 53.2489 51.1457 53.4659 52.2883 53.3753C52.8824 53.3282 53.5059 53.653 54.1161 53.8098C54.0755 53.7322 54.0349 53.6546 53.9943 53.577C54.7355 53.1456 55.4767 52.7143 56.2435 52.2681C56.6038 52.7369 56.6932 53.0476 56.0141 53.1655C55.7987 53.2029 55.4932 53.2831 55.4142 53.4381C55.1932 53.8721 55.0691 54.3554 54.8901 54.8665C55.3005 54.9452 55.7567 55.0328 56.226 55.1359C56.2391 55.1516 56.2667 55.1816 56.2667 55.1816Z" fill="#0354CE"/>
<path d="M8.62175 44.3188C8.62794 44.2652 8.65357 44.2236 8.78247 44.17C8.9091 44.0973 8.95192 44.0486 8.99476 43.9999C8.99476 43.9999 8.99262 44.0029 9.05504 44.0011C9.34146 43.7908 9.56546 43.5823 9.78947 43.3738C9.78947 43.3738 9.80857 43.3734 9.86432 43.3796C9.95106 43.3306 9.98206 43.2755 10.0131 43.2203C10.0131 43.2203 10.0477 43.2524 10.0916 43.2393C10.3197 43.0363 10.5039 42.8464 10.6881 42.6565C10.6881 42.6565 10.7068 42.6564 10.7623 42.6625C10.8489 42.613 10.88 42.5573 10.9111 42.5015C10.9111 42.5015 10.9477 42.5326 10.9907 42.5197C11.6522 42.0257 12.2708 41.5446 12.8893 41.0635C12.8893 41.0635 12.9502 41.1061 12.9767 41.1046C13.0423 41.1103 13.0815 41.1175 13.1847 41.1323C13.4643 41.3513 13.68 41.5626 14.0198 41.8955C13.4896 41.9256 13.2319 41.9403 12.7247 41.9692C13.3532 42.4248 13.5253 43.1834 14.3267 42.6431C14.5053 42.5227 14.8771 42.702 15.1615 42.7218C15.4917 42.7448 15.8613 42.8427 16.1468 42.7333C16.7509 42.5019 17.2249 42.4202 17.3455 43.0227C17.7217 43.0652 18.0232 43.0202 18.1982 43.1481C18.3069 43.2277 18.2237 43.5694 18.2266 43.7934C17.969 43.7846 17.7046 43.8089 17.4555 43.7582C17.175 43.7011 16.9082 43.5764 16.3723 43.3892C16.7006 44.3069 17.7889 44.5345 17.3986 45.4801C17.0156 45.3806 16.6679 45.2363 16.2384 45.0581C16.457 45.6704 16.6195 46.1255 16.782 46.5805C16.782 46.5805 16.764 46.5632 16.7195 46.5689C16.6267 46.6707 16.5784 46.7668 16.5301 46.8629C16.5301 46.8629 16.5382 46.8679 16.4731 46.8771C16.226 47.1376 16.0439 47.3889 15.8619 47.6403C15.8619 47.6403 15.8233 47.5945 15.778 47.6069C15.4885 47.9913 15.2442 48.3633 14.9999 48.7353C14.9999 48.7353 14.9492 48.6974 14.913 48.713C14.7147 48.8342 14.5525 48.9399 14.3596 48.9875C14.1096 48.9428 13.8679 48.9019 13.6759 48.9812C13.3089 49.1329 12.8889 49.5912 12.6335 49.5041C11.4522 49.101 10.3883 49.1623 9.31844 49.8213C9.08114 49.9674 8.6699 49.9323 8.37011 49.8566C7.5123 49.6399 6.48944 49.6957 5.79395 50.0587C5.72784 50.0932 5.6237 50.0549 5.34937 50.0406C5.48744 49.5354 5.61354 49.0778 5.73746 48.6196C5.86352 48.1535 5.98741 47.6868 6.11101 47.1545C6.09779 47.0019 6.08577 46.9152 6.07377 46.8284C6.07377 46.8284 6.10382 46.8552 6.14475 46.8391C6.26735 46.7016 6.34899 46.5801 6.43065 46.4586C6.43065 46.4586 6.44836 46.486 6.49438 46.4735C6.62125 46.3389 6.70213 46.2168 6.78299 46.0947C6.78299 46.0947 6.81394 46.1317 6.85451 46.1159C6.97984 45.9802 7.06458 45.8603 7.14931 45.7403C7.14931 45.7403 7.16342 45.7637 7.21477 45.7524C7.718 45.267 8.16988 44.7929 8.62175 44.3188Z" fill="#0257D6"/>
<path d="M25.8798 38.6192C24.5007 39.6967 23.1216 40.7743 21.6887 41.8113C21.7568 41.4837 22.192 41.0378 21.4934 41.0305C20.7496 41.0226 20.5366 40.7259 20.465 40.0511C20.383 39.2786 19.807 39.0564 19.1505 39.4497C18.8766 39.6138 18.5764 39.7341 18.3681 39.8354C18.2133 39.2144 18.0931 38.7326 18.0269 38.2216C19.1783 37.6715 20.2759 37.1507 21.4237 36.6655C22.2321 37.7358 22.3712 37.8062 23.0258 37.423C22.718 37.1978 22.4227 36.9818 22.1689 36.7962C22.2847 36.5103 22.3695 36.3012 22.4919 36.0422C26.0845 34.1073 37.2165 30.8648 38.976 31.2027C38.9328 31.2404 38.8944 31.288 38.8447 31.313C36.0756 32.7045 33.2985 34.0805 30.5419 35.4962C30.0362 35.7559 29.613 36.1761 29.1517 36.5222C29.1517 36.5222 29.1233 36.4808 29.0757 36.4855C28.4788 36.8668 27.9296 37.2435 27.3804 37.6201C27.3804 37.6201 27.335 37.5903 27.2932 37.594C26.7941 37.9381 26.337 38.2787 25.8798 38.6192ZM23.4877 37.909C23.4231 38.1123 23.3586 38.3156 23.2941 38.5189C23.6069 38.4307 23.9196 38.3426 24.2324 38.2544C24.2146 38.1665 24.1968 38.0787 24.1791 37.9908C23.9939 37.9601 23.8088 37.9295 23.4877 37.909Z" fill="#025BDC"/>
<path d="M31.9797 51.1846C30.8038 51.9078 31.4212 53.1593 31.165 54.1468C31.0588 54.556 31.4835 55.109 31.6821 55.5902C32.0673 56.5233 31.8224 57.3293 31.2196 58.0794C30.8554 58.5327 31.2749 59.544 31.8538 59.6181C32.0305 59.6407 32.2123 59.6247 32.3918 59.6247C37.2685 59.6251 42.1454 59.6469 47.0217 59.6036C47.8215 59.5965 48.6579 59.405 49.4082 59.1179C50.6116 58.6574 51.7819 58.0914 52.9157 57.4768C53.4104 57.2087 53.7804 56.7102 54.207 56.3164C54.1641 56.2458 54.1213 56.1752 54.0785 56.1046C54.3927 56.1428 54.707 56.1811 55.0908 56.2247C53.7909 57.7842 51.9862 58.6349 50.072 59.2398C48.9716 59.5876 47.8055 59.9022 46.6647 59.9179C41.4609 59.9891 36.2557 59.9491 30.822 59.9491C30.7295 58.2532 30.4667 56.533 30.5759 54.8368C30.8615 50.4025 32.3441 46.3439 34.8441 42.6643C34.9095 42.568 35.0063 42.4931 35.147 42.3923C35.0284 42.8139 34.8514 43.2514 34.62 43.7823C34.3285 44.2875 34.0887 44.698 33.8546 45.1117C33.1592 46.3407 32.9145 47.6981 32.6699 49.0665C32.6131 49.3841 32.2181 49.6412 31.976 49.8812C31.9446 49.789 31.9161 49.7417 31.8876 49.6944C31.8586 49.7722 31.8296 49.8501 31.8016 49.9989C31.8616 50.4414 31.9207 50.813 31.9797 51.1846ZM30.7485 56.0668C30.759 56.1781 30.7695 56.2894 30.793 56.5385C30.8606 56.341 30.8969 56.2877 30.8913 56.2392C30.8821 56.16 30.8454 56.084 30.7485 56.0668Z" fill="#0856CF"/>
<path d="M21.7945 55.9505C21.5974 57.3162 21.4175 58.6071 21.2312 59.9442C20.1492 59.9442 19.0609 59.9442 17.8921 59.9442C18.1838 57.7809 18.7602 55.7389 19.6303 53.7819C19.7122 53.5977 20.0197 53.4197 20.2335 53.4054C20.9404 53.3584 21.6524 53.3877 22.4394 53.3877C22.2133 54.2837 22.0125 55.0798 21.7945 55.9505Z" fill="#0856CF"/>
<path d="M17.4337 45.4351C17.7888 44.5343 16.7005 44.3067 16.3722 43.389C16.9081 43.5763 17.1749 43.701 17.4554 43.7581C17.7045 43.8088 17.9689 43.7845 18.2265 43.7933C18.2236 43.5693 18.3068 43.2275 18.1981 43.148C18.0231 43.02 17.7216 43.0651 17.3454 43.0226C17.2248 42.42 16.7508 42.5018 16.1467 42.7332C15.8612 42.8425 15.4916 42.7447 15.1614 42.7217C14.877 42.7019 14.5052 42.5225 14.3266 42.643C13.5252 43.1833 13.3531 42.4246 12.7246 41.969C13.2318 41.9402 13.4895 41.9255 14.0197 41.8953C13.6799 41.5624 13.4642 41.3511 13.2234 41.0857C13.9308 40.4999 14.6634 39.9682 15.396 39.4365C15.396 39.4365 15.4526 39.4724 15.491 39.476C15.6226 39.4837 15.7159 39.4878 15.8414 39.5535C15.966 39.687 16.062 39.8251 16.1502 39.8202C16.8809 39.7799 17.2011 40.2349 17.6827 40.7188C18.3077 41.3467 19.1698 41.9783 20.2528 41.7427C20.2921 41.7342 20.3457 41.7913 20.45 41.8504C20.3005 42.0496 20.1581 42.2394 19.9569 42.5075C20.3324 42.5394 20.5939 42.5617 20.8553 42.5839C20.4604 42.9523 20.0656 43.3207 19.5929 43.6999C19.4836 43.7547 19.4521 43.7987 19.4207 43.8428C19.4207 43.8428 19.4149 43.8292 19.3776 43.8468C19.306 43.9166 19.2718 43.9688 19.2376 44.021C19.2376 44.021 19.2347 44.007 19.1972 44.0254C19.1257 44.0956 19.0917 44.1475 19.0577 44.1994C19.0577 44.1994 19.054 44.1856 19.0168 44.2043C18.9455 44.2746 18.9115 44.3261 18.8775 44.3775C18.8775 44.3775 18.8733 44.3642 18.8361 44.3835C18.7652 44.4544 18.7315 44.506 18.6978 44.5576C18.6978 44.5576 18.694 44.5442 18.6567 44.5636C18.5861 44.6353 18.5527 44.6876 18.5193 44.7399C18.5193 44.7399 18.5169 44.7258 18.4791 44.7443C18.4078 44.8157 18.3742 44.8685 18.3407 44.9214C18.3407 44.9214 18.3388 44.907 18.3008 44.9248C18.229 44.9958 18.1954 45.049 18.1617 45.1022C18.1617 45.1022 18.16 45.0858 18.1064 45.0886C17.8464 45.2059 17.6401 45.3205 17.4337 45.4351Z" fill="#025BDC"/>
<path d="M0.368207 19.5777C0.366136 20.7176 0.364064 21.8576 0.362738 23.1288C0.364404 23.2917 0.365347 23.3233 0.366278 23.355C0.364185 23.7773 0.362102 24.1996 0.361697 24.7489C0.364777 24.9077 0.366202 24.9396 0.367615 24.9714C0.365401 26.2291 0.363187 27.4867 0.360579 28.9128C0.360195 33.7677 0.360195 38.4541 0.360195 43.3707C0.964361 42.8833 1.38593 42.5433 1.83201 42.2266C1.85652 42.25 1.90729 42.2948 1.90729 42.2948C1.38051 42.8902 0.853723 43.4856 0.32694 44.081C0.248648 44.0221 0.170344 43.9632 0.092041 43.9043C0.092041 29.3063 0.092041 14.7083 0.092041 0C1.48426 0 2.81951 1.07038e-08 4.20141 0.055749C4.09596 0.190119 3.94385 0.268738 3.79172 0.347359C2.89888 0.353061 2.00493 0.387966 1.11359 0.354166C0.52351 0.331787 0.344828 0.552749 0.35078 1.12935C0.375935 3.57042 0.362716 6.01189 0.363341 8.6216C0.364853 12.3859 0.36653 15.9818 0.368207 19.5777Z" fill="#3971D1"/>
<path d="M21.3734 36.6297C20.2759 37.1506 19.1783 37.6714 17.9802 38.2239C17.8486 38.2588 17.8176 38.2621 17.7463 38.2644C17.706 38.2634 17.6252 38.2678 17.6075 38.2481C17.5898 38.2284 17.5549 38.1884 17.5549 38.1884C20.9533 36.2459 24.5425 34.7346 28.2464 33.4903C32.381 32.1012 36.5897 31.0236 40.6675 30.5952C37.0212 32.4839 33.1492 34.4894 29.2145 36.5086C29.613 36.176 30.0362 35.7558 30.5419 35.4961C33.2985 34.0804 36.0756 32.7044 38.8447 31.3129C38.8944 31.2879 38.9328 31.2403 38.976 31.2026C37.2165 30.8647 26.0845 34.1072 22.4292 36.0506C22.0103 36.2826 21.6919 36.4561 21.3734 36.6297Z" fill="#2E5FB9"/>
<path d="M22.5032 47.9804C22.8355 47.4808 23.162 47.0524 23.4212 46.5866C24.0448 45.4656 24.8725 44.9094 26.1477 45.5161C25.4233 46.8501 24.6872 48.223 23.9262 49.5819C23.8474 49.7226 23.6136 49.8718 23.4634 49.8606C22.851 49.8149 22.2431 49.7084 21.5288 49.6098C21.8711 49.035 22.1689 48.5348 22.5032 47.9804Z" fill="#0856CF"/>
<path d="M3.875 0.349712C3.94371 0.268844 4.09583 0.190226 4.28382 0.0719293C4.80783 0.0245928 5.29598 0.0169339 5.92172 0.0688822C9.32459 0.144928 12.5899 0.162703 15.8552 0.171801C15.9606 0.172097 16.0663 0.0836846 16.1719 0.0366248C17.5147 0.0811089 18.8577 0.166304 20.2002 0.159278C21.7148 0.151356 23.2292 0.0127194 24.7434 0.017449C26.746 0.0237049 28.7482 0.148219 30.7508 0.156576C32.185 0.162558 33.6282 -0.0621805 35.0524 0.0348382C37.6458 0.21149 40.3162 -0.0674637 42.8202 1.15998C41.793 1.00327 40.7204 0.790972 39.6456 0.590659C39.1537 0.498981 38.6574 0.362706 38.163 0.362139C26.7615 0.349118 15.36 0.35202 3.875 0.349712Z" fill="#2E5FB9"/>
<path d="M17.7866 38.2656C17.8176 38.2622 17.8486 38.2589 17.9263 38.2532C18.0931 38.7326 18.2133 39.2145 18.3681 39.8354C18.5764 39.7341 18.8766 39.6138 19.1505 39.4497C19.807 39.0564 20.383 39.2787 20.465 40.0511C20.5367 40.7259 20.7496 41.0226 21.4934 41.0305C22.1921 41.0378 21.7569 41.4837 21.6319 41.8303C21.629 41.8899 21.6243 41.8849 21.5581 41.8937C21.2819 42.1266 21.0719 42.3507 20.8619 42.5747C20.8619 42.5747 20.8572 42.5779 20.8562 42.581C20.5939 42.5618 20.3324 42.5396 19.9568 42.5077C20.158 42.2396 20.3005 42.0497 20.45 41.8505C20.3456 41.7915 20.292 41.7343 20.2528 41.7429C19.1698 41.9784 18.3077 41.3468 17.6827 40.7189C17.2011 40.235 16.8809 39.7801 16.1501 39.8204C16.062 39.8252 15.9659 39.6872 15.8708 39.5026C16.1479 39.2486 16.4276 39.1073 16.7718 38.9676C16.9731 38.8492 17.1099 38.7292 17.2489 38.567C17.262 38.4693 17.2655 38.4132 17.2616 38.3567C17.2849 38.3321 17.3082 38.3075 17.4001 38.3091C17.5059 38.3784 17.5512 38.41 17.6442 38.4142C17.734 38.3662 17.7682 38.322 17.7866 38.2656Z" fill="#0257D6"/>
<path d="M12.2903 52.697C11.2453 54.9972 10.206 57.3001 9.14397 59.5924C9.06338 59.7663 8.82219 59.9806 8.65401 59.9821C5.82559 60.0061 2.9969 59.9992 0.194976 59.9992C-0.470384 56.7728 0.640661 54.0783 2.41206 51.5194C2.48075 51.5016 2.53017 51.5454 2.52083 51.6087C2.40524 51.8844 2.31635 52.1077 2.19001 52.3074C0.975708 54.2267 0.107849 56.2212 0.332621 58.5937C0.411801 59.4295 0.650679 59.664 1.45052 59.6466C3.48298 59.6024 5.51707 59.633 7.55051 59.6322C8.7356 59.6317 8.8956 59.3713 9.36114 58.3332C10.2322 56.391 11.257 54.5178 12.2362 52.6359C12.2546 52.656 12.2903 52.697 12.2903 52.697Z" fill="#2E5FB9"/>
<path d="M21.7475 31.7905C22.2056 31.6551 22.6637 31.5197 23.2266 31.325C23.6436 31.2081 23.9556 31.1504 24.2676 31.0927C25.1778 30.9105 26.0879 30.7282 27.075 30.5505C25.9922 30.8888 24.8388 31.2463 23.6717 31.552C18.6261 32.8736 13.8092 34.7743 9.12092 37.2181C9.03714 37.2167 8.98903 37.1719 9.02291 37.1201C9.46475 36.8388 9.8594 36.5803 10.2831 36.3847C11.9646 35.6083 13.6472 34.8329 15.3451 34.0933C16.7501 33.4813 18.1771 32.9202 19.5943 32.3365C19.5943 32.3365 19.5936 32.3335 19.6652 32.3378C20.1099 32.2232 20.483 32.1043 20.8562 31.9853C21.0652 31.9576 21.2742 31.9298 21.5709 31.8509C21.6585 31.7998 21.7475 31.7905 21.7475 31.7905Z" fill="#3971D1"/>
<path d="M59.4537 39.153C59.2866 38.2353 59.2009 37.2798 58.2695 36.7318C58.1766 36.6771 58.0517 36.5435 58.0633 36.4643C58.2239 35.3657 57.2345 34.7526 56.9854 33.7703C58.7878 35.6529 59.6772 38.0307 60.1745 40.567C60.3497 41.4602 60.3064 42.3961 60.3152 43.3867C60.2357 43.4615 60.2039 43.462 60.172 43.4625C60.172 43.106 60.172 42.7495 60.172 42.4436C59.9907 42.5727 59.8148 42.698 59.6388 42.8233C59.5287 42.5512 59.2947 42.2601 59.3331 42.0108C59.4246 41.4161 59.6683 40.8464 59.7965 40.2549C59.8303 40.0989 59.6673 39.9004 59.525 39.6386C59.4549 39.4215 59.4543 39.2873 59.4537 39.153Z" fill="#0856CF"/>
<path d="M51.2726 20.1054C51.2103 19.9965 51.2061 19.8567 51.1996 19.647C51.2006 19.4982 51.2038 19.4194 51.254 19.2385C51.3855 18.8044 51.4699 18.4724 51.5543 18.1405C51.56 16.6924 51.5852 15.2441 51.5666 13.7963C51.5409 11.7998 50.9173 9.95373 50.0844 8.16503C50.0112 8.00771 49.9908 7.82575 49.9563 7.58521C51.0701 9.19165 51.5309 11.0928 51.8491 13.0324C52.2401 15.4157 52.0901 17.7704 51.2726 20.1054Z" fill="#2E5FB9"/>
<path d="M33.2513 29.103C34.9849 28.9845 36.7185 28.8659 38.5941 28.7466C38.8794 28.7882 39.0226 28.8306 39.1659 28.873C35.1989 29.4371 31.232 30.0012 27.2046 30.5635C27.9982 30.3174 28.8443 30.0382 29.7087 29.8382C30.5915 29.634 31.4923 29.5076 32.5171 29.3179C32.8498 29.2268 33.0506 29.1649 33.2513 29.103Z" fill="#3971D1"/>
<path d="M56.0347 32.6226C55.936 32.6736 55.8037 32.6998 55.7006 32.6564C55.0283 32.3734 54.3623 32.0753 53.9224 31.8823C53.6124 31.4569 53.4717 31.0564 53.2045 30.9355C52.3246 30.5372 51.4104 30.2008 50.4835 29.9285C50.2077 29.8475 49.8435 30.0435 49.526 30.1341C49.1044 30.2545 48.6888 30.3959 48.1995 30.5259C49.2174 29.5272 50.3608 29.3151 51.779 29.9408C53.3282 30.6243 54.7893 31.3879 56.0347 32.6226Z" fill="#0856CF"/>
<path d="M28.6684 42.3903C28.1335 42.4368 27.65 42.4368 27.1091 42.4368C27.9143 40.9737 28.8669 40.4251 30.1894 40.6809C29.6737 41.2645 29.1968 41.8041 28.6684 42.3903Z" fill="#2E5FB9"/>
<path d="M37.121 39.7009C37.3066 40.0835 37.3995 40.5062 37.5749 40.8913C37.8388 41.4709 37.7888 41.8911 37.0829 42.1847C37.0829 41.8686 37.0829 41.6247 37.0829 41.3807C36.994 41.3535 36.9051 41.3264 36.8162 41.2992C36.7025 41.686 36.5888 42.0728 36.4943 42.3939C36.154 42.3323 35.7599 42.2609 35.3059 42.1962C35.8525 41.3766 36.4589 40.5504 37.121 39.7009Z" fill="#0856CF"/>
<path d="M42.5763 28.3857C43.0654 28.4415 43.5545 28.4973 44.1871 28.5547C44.5846 28.496 44.8386 28.4357 45.0925 28.3755C45.4122 28.2001 45.7319 28.0248 46.1146 27.8489C45.5863 28.5375 44.8739 28.834 43.9314 28.8019C42.5163 28.7536 41.0961 28.8517 39.6213 28.8023C40.5685 28.6066 41.5724 28.4962 42.5763 28.3857Z" fill="#3971D1"/>
<path d="M48.5055 25.1532C48.9614 24.4241 49.4177 23.6952 49.873 22.9657C49.993 22.7733 50.11 22.579 50.3111 22.3297C50.4546 22.2688 50.5155 22.2638 50.5763 22.2588C49.8197 24.1749 48.6609 25.8056 47.0495 27.1742C47.005 27.0384 47.0136 26.8811 47.1014 26.6579C47.2656 26.5348 47.3506 26.4775 47.4356 26.4203C47.6747 26.1047 47.9139 25.7891 48.2049 25.4022C48.3397 25.2717 48.4226 25.2124 48.5055 25.1532Z" fill="#3971D1"/>
<path d="M33.5596 36.7614C33.8893 36.7533 34.1644 36.7815 34.4395 36.8096C33.7109 37.4361 33.2933 38.6147 31.9341 37.96C32.4872 37.5508 32.9961 37.1743 33.5596 36.7614Z" fill="#2E5FB9"/>
<path d="M42.5602 28.3138C41.5725 28.4963 40.5686 28.6067 39.5398 28.7797C39.4377 28.856 39.3606 28.8697 39.2247 28.8782C39.0228 28.8305 38.8796 28.7881 38.6775 28.7429C38.7813 28.5616 38.9395 28.2335 39.1073 28.2285C40.2517 28.195 41.3981 28.2294 42.5602 28.3138Z" fill="#025BDC"/>
<path d="M60.172 43.5422C60.2038 43.4621 60.2356 43.4616 60.3152 43.4597C60.2686 44.8737 60.2104 46.2928 60.0633 47.7026C59.9995 48.3143 59.7525 48.9069 59.529 49.545C59.4693 49.5818 59.4421 49.5603 59.4459 49.4867C59.5678 48.8645 59.6859 48.3159 59.804 47.7673C59.867 47.1609 59.93 46.5545 60.0197 45.8118C60.0872 45.416 60.128 45.1564 60.1688 44.8968C60.1699 44.4718 60.1709 44.0469 60.172 43.5422Z" fill="#0354CE"/>
<path d="M16.0897 0.0197948C16.0664 0.0834928 15.9607 0.171905 15.8553 0.171609C12.59 0.162512 9.32471 0.144736 6.0022 0.081668C9.29907 0.024412 12.6532 0.0137855 16.0897 0.0197948Z" fill="#3971D1"/>
<path d="M59.363 50.0071C58.8614 51.0676 58.3599 52.128 57.7864 53.2007C57.7143 53.213 57.6537 53.1547 57.654 53.0892C57.4747 52.7042 57.2952 52.3848 56.9995 51.8587C57.4611 52.0406 57.6823 52.1278 57.9243 52.2232C58.3897 51.4251 58.828 50.6733 59.2903 49.9431C59.3143 49.9647 59.363 50.0071 59.363 50.0071Z" fill="#0354CE"/>
<path d="M48.0712 30.5305C47.7699 30.8647 47.4465 31.271 47.0343 31.5426C46.2152 32.0826 45.3473 32.5485 44.4329 33.044C45.5805 32.2092 46.7947 31.3755 48.0712 30.5305Z" fill="#0856CF"/>
<path d="M5.41929 39.5306C4.34075 40.3847 3.26222 41.2388 2.11065 42.0904C2.03762 42.0879 1.98967 42.0264 2.01997 41.9745C3.15256 41.1034 4.25484 40.2842 5.37266 39.4814C5.38818 39.4978 5.41929 39.5306 5.41929 39.5306Z" fill="#3971D1"/>
<path d="M36.5519 34.8716C36.7576 34.8797 36.9129 34.9117 37.2564 34.9823C36.5598 35.4012 36.1962 36.1026 35.1396 35.7602C35.7216 35.3906 36.1116 35.143 36.5519 34.8716Z" fill="#2E5FB9"/>
<path d="M44.307 33.0571C43.7948 34.0998 42.8858 34.7554 41.731 35.1952C42.525 34.4856 43.3861 33.7787 44.307 33.0571Z" fill="#0856CF"/>
<path d="M17.3985 45.4801C17.64 45.3206 17.8464 45.206 18.1131 45.0934C17.7451 45.5743 17.3166 46.0533 16.835 46.5564C16.6194 46.1254 16.4569 45.6704 16.2383 45.0581C16.6677 45.2363 17.0155 45.3806 17.3985 45.4801Z" fill="#0453CC"/>
<path d="M9.06091 37.2396C8.22632 37.7879 7.36791 38.3136 6.42836 38.8386C6.34722 38.8379 6.29842 38.7925 6.32955 38.74C7.23679 38.1824 8.11289 37.6773 8.989 37.1721C8.989 37.1721 9.03711 37.2169 9.06091 37.2396Z" fill="#3971D1"/>
<path d="M13.9148 50.1909C13.405 51.0018 12.8952 51.8127 12.3379 52.6603C12.2904 52.6969 12.2547 52.6559 12.2468 52.573C12.7722 51.6949 13.3053 50.8997 13.8575 50.1262C13.8765 50.1478 13.9148 50.1909 13.9148 50.1909Z" fill="#2E5FB9"/>
<path d="M39.5216 37.8953C39.0608 38.1806 38.6 38.466 38.0737 38.7271C38.4691 38.1987 38.9298 37.6945 39.4478 37.1724C39.5104 37.3522 39.5158 37.5498 39.5214 37.8215C39.5216 37.8955 39.5216 37.8953 39.5216 37.8953Z" fill="#0856CF"/>
<path d="M41.4225 35.376C41.3083 35.7965 41.1362 36.2335 40.9363 36.7408C40.7766 36.7044 40.5338 36.6491 40.2258 36.56C40.5619 36.1483 40.9632 35.7704 41.4225 35.376Z" fill="#0856CF"/>
<path d="M15.3356 39.4543C14.6635 39.9682 13.9309 40.4999 13.1595 41.078C13.0815 41.1173 13.0423 41.1101 12.9473 41.0815C13.686 40.5308 14.4806 40.0015 15.3356 39.4543Z" fill="#2E5FB9"/>
<path d="M46.3547 3.14536C46.0627 3.23927 45.7416 3.2808 45.3157 3.33589C45.2464 3.05441 45.1723 2.75384 45.104 2.38135C45.515 2.57061 45.9203 2.83179 46.3547 3.14536Z" fill="#2E5FB9"/>
<path d="M3.54126 49.8517C3.98004 49.2748 4.41883 48.6978 4.92831 48.1072C4.99899 48.0934 5.04463 48.1338 5.03458 48.1959C4.55342 48.8161 4.08231 49.3741 3.59341 49.9123C3.57562 49.8924 3.54126 49.8517 3.54126 49.8517Z" fill="#2E5FB9"/>
<path d="M16.7074 38.9661C16.4277 39.1074 16.148 39.2486 15.8388 39.441C15.716 39.4879 15.6227 39.4838 15.4626 39.4571C15.9792 39.0828 16.5625 38.7312 17.2038 38.3682C17.2656 38.4132 17.2621 38.4693 17.1985 38.5888C16.9997 38.7572 16.8536 38.8616 16.7074 38.9661Z" fill="#2E5FB9"/>
<path d="M12.8292 41.0796C12.2707 41.5445 11.6522 42.0256 10.9692 42.5087C11.5263 42.039 12.1478 41.5674 12.8292 41.0796Z" fill="#2E5FB9"/>
<path d="M8.56556 44.3435C8.16985 44.7929 7.71797 45.267 7.20239 45.7466C7.59559 45.2907 8.05248 44.8295 8.56556 44.3435Z" fill="#2E5FB9"/>
<path d="M50.4949 21.541C50.6964 21.1536 50.8979 20.7662 51.1458 20.3381C51.0326 20.8614 50.8729 21.4253 50.6467 22.0078C50.5517 21.8646 50.5233 21.7028 50.4949 21.541Z" fill="#3971D1"/>
<path d="M6.0193 46.8518C6.08566 46.915 6.09768 47.0018 6.0591 47.1824C5.68722 47.5621 5.36594 47.8479 5.04466 48.1336C5.04466 48.1336 4.99902 48.0933 4.97632 48.0729C5.29072 47.6602 5.62783 47.2677 6.0193 46.8518Z" fill="#2E5FB9"/>
<path d="M25.9414 38.6084C26.3372 38.2785 26.7943 37.938 27.3187 37.6035C26.9248 37.939 26.4638 38.2684 25.9414 38.6084Z" fill="#2E5FB9"/>
<path d="M49.2938 6.31793C48.9938 6.00921 48.6756 5.64424 48.3804 5.21216C48.6941 5.51726 48.9848 5.88947 49.2938 6.31793Z" fill="#2E5FB9"/>
<path d="M57.7433 53.2436C57.5537 53.5958 57.3352 53.9174 57.0455 54.253C56.9743 54.2671 56.9298 54.2275 56.9286 54.1713C56.872 53.9764 56.8167 53.8376 56.8147 53.673C57.13 53.4831 57.3919 53.3189 57.6538 53.1548C57.6538 53.1548 57.7145 53.213 57.7433 53.2436Z" fill="#0354CE"/>
<path d="M27.4399 37.6007C27.9296 37.2434 28.4788 36.8668 29.0937 36.5029C28.606 36.871 28.0527 37.2262 27.4399 37.6007Z" fill="#2E5FB9"/>
<path d="M15.0481 48.7042C15.2443 48.3631 15.4886 47.9911 15.799 47.6282C15.6089 47.9825 15.3525 48.3279 15.0481 48.7042Z" fill="#2E5FB9"/>
<path d="M56.9872 33.6506C56.6862 33.4077 56.3664 33.1089 56.0488 32.7429C56.3569 32.9821 56.6627 33.2884 56.9872 33.6506Z" fill="#0856CF"/>
<path d="M2.4563 51.4793C2.66694 51.0861 2.90204 50.7152 3.1985 50.3217C3.25985 50.2991 3.28781 50.3256 3.27378 50.3861C3.01657 50.8129 2.77337 51.1791 2.53019 51.5453C2.53019 51.5453 2.48076 51.5015 2.4563 51.4793Z" fill="#2E5FB9"/>
<path d="M37.9447 38.749C37.7626 39.0398 37.5318 39.3589 37.2368 39.6799C37.4137 39.3803 37.6549 39.0788 37.9447 38.749Z" fill="#0856CF"/>
<path d="M45.0818 2.26442C44.7039 2.1194 44.2921 1.92389 43.8533 1.67163C44.2334 1.81456 44.6406 2.01424 45.0818 2.26442Z" fill="#2E5FB9"/>
<path d="M50.4421 21.5671C50.5233 21.703 50.5517 21.8648 50.6106 22.0583C50.6374 22.121 50.6339 22.1518 50.6034 22.2208C50.5156 22.2638 50.4547 22.2688 50.3483 22.2789C50.3316 22.0537 50.3604 21.8234 50.4421 21.5671Z" fill="#025BDC"/>
<path d="M55.2168 56.208C55.3593 55.9858 55.5561 55.7441 55.8229 55.5059C55.6856 55.7357 55.4784 55.962 55.2168 56.208Z" fill="#0856CF"/>
<path d="M20.9177 42.5588C21.0722 42.3506 21.2822 42.1265 21.5559 41.8958C21.4042 42.107 21.1888 42.325 20.9177 42.5588Z" fill="#025BDC"/>
<path d="M15.9148 47.6185C16.044 47.3889 16.226 47.1376 16.4711 46.8813C16.3454 47.1165 16.1565 47.3567 15.9148 47.6185Z" fill="#2E5FB9"/>
<path d="M9.7379 43.3953C9.56542 43.5822 9.34141 43.7907 9.05322 44.0003C9.22148 43.8066 9.45391 43.6117 9.7379 43.3953Z" fill="#2E5FB9"/>
<path d="M46.2314 27.8396C46.3964 27.6344 46.6182 27.4176 46.9019 27.2131C46.7387 27.4263 46.5135 27.6272 46.2314 27.8396Z" fill="#3971D1"/>
<path d="M14.3903 49.0456C14.5524 48.9399 14.7146 48.8342 14.9353 48.7354C14.8497 48.9621 14.7056 49.182 14.4918 49.4138C14.422 49.4256 14.3786 49.3875 14.382 49.3305C14.3871 49.1976 14.3887 49.1216 14.3903 49.0456Z" fill="#2E5FB9"/>
<path d="M14.4438 49.4446C14.3125 49.6831 14.1595 49.9025 13.9606 50.1564C13.9147 50.1908 13.8764 50.1478 13.8657 50.068C14.0296 49.788 14.2041 49.5877 14.3786 49.3875C14.3786 49.3875 14.4221 49.4256 14.4438 49.4446Z" fill="#2E5FB9"/>
<path d="M40.0792 36.5811C39.9651 36.7619 39.8028 36.9662 39.5701 37.1654C39.6767 36.975 39.8539 36.7898 40.0792 36.5811Z" fill="#0856CF"/>
<path d="M10.6366 42.6785C10.504 42.8464 10.3198 43.0363 10.071 43.2278C10.1994 43.0531 10.3922 42.8768 10.6366 42.6785Z" fill="#2E5FB9"/>
<path d="M56.9969 54.2865C56.9156 54.4556 56.8119 54.6051 56.6482 54.7688C56.5881 54.783 56.5671 54.7659 56.572 54.7036C56.6945 54.5034 56.8122 54.3653 56.9299 54.2273C56.9299 54.2273 56.9744 54.2669 56.9969 54.2865Z" fill="#0354CE"/>
<path d="M6.37071 38.8616C6.24903 38.9917 6.10387 39.0981 5.88438 39.2015C5.81005 39.1986 5.75888 39.1506 5.78723 39.1011C5.97653 38.9653 6.1375 38.8789 6.29846 38.7925C6.29846 38.7925 6.34726 38.8379 6.37071 38.8616Z" fill="#3971D1"/>
<path d="M43.7102 1.53332C43.5032 1.50541 43.254 1.42664 42.9712 1.29126C43.1811 1.31726 43.4246 1.39986 43.7102 1.53332Z" fill="#2E5FB9"/>
<path d="M5.83444 39.2237C5.74716 39.335 5.63542 39.4212 5.47152 39.5191C5.41932 39.5307 5.38822 39.4979 5.39769 39.4331C5.52439 39.2957 5.64161 39.2232 5.75882 39.1506C5.75882 39.1506 5.80998 39.1986 5.83444 39.2237Z" fill="#3971D1"/>
<path d="M3.24585 50.2859C3.30412 50.1509 3.37634 50.0291 3.49494 49.8794C3.54134 49.8516 3.5757 49.8923 3.58357 49.9664C3.49021 50.1355 3.38899 50.2305 3.28776 50.3256C3.28776 50.3256 3.2598 50.2991 3.24585 50.2859Z" fill="#2E5FB9"/>
<path d="M49.5873 6.76584C49.49 6.7138 49.3877 6.60852 49.3013 6.44629C49.4056 6.49709 49.4939 6.60484 49.5873 6.76584Z" fill="#2E5FB9"/>
<path d="M7.09771 45.7573C7.06453 45.8602 6.97979 45.9802 6.83521 46.1014C6.86564 45.9932 6.9559 45.8838 7.09771 45.7573Z" fill="#2E5FB9"/>
<path d="M47.7707 4.44004C47.6714 4.40869 47.5547 4.32695 47.4331 4.18652C47.5365 4.2151 47.6449 4.30237 47.7707 4.44004Z" fill="#2E5FB9"/>
<path d="M6.73206 46.1133C6.70203 46.2166 6.62115 46.3386 6.48047 46.4646C6.50751 46.3563 6.59436 46.2442 6.73206 46.1133Z" fill="#2E5FB9"/>
<path d="M6.37936 46.4778C6.34892 46.5801 6.26727 46.7016 6.12671 46.8301C6.15459 46.7237 6.24138 46.6103 6.37936 46.4778Z" fill="#2E5FB9"/>
<path d="M48.0311 4.69674C47.9674 4.69402 47.8812 4.64928 47.7903 4.54624C47.8599 4.54352 47.9343 4.59912 48.0311 4.69674Z" fill="#2E5FB9"/>
<path d="M47.4144 4.08147C47.3328 4.07925 47.2357 4.0292 47.1482 3.92044C47.2381 3.91903 47.3185 3.97634 47.4144 4.08147Z" fill="#2E5FB9"/>
<path d="M16.5776 46.8419C16.5784 46.7668 16.6268 46.6707 16.732 46.5693C16.7343 46.6497 16.6797 46.7353 16.5776 46.8419Z" fill="#0453CC"/>
<path d="M59.4827 49.5929C59.4741 49.7098 59.4521 49.8157 59.3966 49.9643C59.3631 50.0071 59.3144 49.9647 59.2966 49.8906C59.3333 49.7311 59.3878 49.6457 59.4422 49.5603C59.4422 49.5603 59.4694 49.5818 59.4827 49.5929Z" fill="#0354CE"/>
<path d="M49.7804 7.11755C49.7183 7.09002 49.6522 7.00924 49.5881 6.87183C49.6523 6.89824 49.7143 6.98127 49.7804 7.11755Z" fill="#2E5FB9"/>
<path d="M49.9702 7.47393C49.9072 7.44573 49.8395 7.3634 49.7761 7.22314C49.8421 7.25008 49.9039 7.33494 49.9702 7.47393Z" fill="#2E5FB9"/>
<path d="M48.2062 4.89625C48.1616 4.91208 48.1041 4.89391 48.0632 4.82585C48.1286 4.79035 48.1665 4.81912 48.2062 4.89625Z" fill="#2E5FB9"/>
<path d="M2.05735 42.1215C2.05099 42.1986 2.01667 42.2341 1.94064 42.2782C1.90721 42.2947 1.85644 42.2499 1.85522 42.1903C1.89088 42.085 1.93611 42.0503 1.98969 42.0264C1.98969 42.0264 2.03764 42.0878 2.05735 42.1215Z" fill="#3971D1"/>
<path d="M48.3798 5.0962C48.3332 5.11077 48.2747 5.08557 48.2283 5.00794C48.2973 4.97093 48.3397 5.00457 48.3798 5.0962Z" fill="#2E5FB9"/>
<path d="M9.97195 43.229C9.98192 43.2755 9.95093 43.3307 9.86942 43.3716C9.84005 43.3023 9.8774 43.2624 9.97195 43.229Z" fill="#2E5FB9"/>
<path d="M18.5672 44.7269C18.5529 44.6876 18.5862 44.6354 18.6637 44.5652C18.6768 44.6028 18.6459 44.6584 18.5672 44.7269Z" fill="#0453CC"/>
<path d="M19.4674 43.8295C19.4523 43.7987 19.4837 43.7547 19.5427 43.7241C19.5514 43.7638 19.5327 43.7901 19.4674 43.8295Z" fill="#0453CC"/>
<path d="M19.2862 44.0094C19.2718 43.9689 19.306 43.9167 19.3849 43.8472C19.398 43.8858 19.3664 43.9418 19.2862 44.0094Z" fill="#0453CC"/>
<path d="M8.9425 44.0022C8.95188 44.0485 8.90906 44.0972 8.81814 44.158C8.81013 44.1149 8.8502 44.0597 8.9425 44.0022Z" fill="#2E5FB9"/>
<path d="M19.1058 44.1875C19.0919 44.1476 19.1259 44.0957 19.2045 44.0269C19.2172 44.065 19.1855 44.1202 19.1058 44.1875Z" fill="#0453CC"/>
<path d="M18.9258 44.3664C18.9115 44.3261 18.9455 44.2746 19.0237 44.2061C19.0366 44.2444 19.0054 44.2998 18.9258 44.3664Z" fill="#0453CC"/>
<path d="M18.7455 44.5453C18.7315 44.5059 18.7652 44.4543 18.8429 44.3853C18.8556 44.4229 18.8244 44.478 18.7455 44.5453Z" fill="#0453CC"/>
<path d="M46.5653 3.31865C46.5231 3.33975 46.4616 3.31695 46.3887 3.24328C46.4335 3.21986 46.4898 3.2473 46.5653 3.31865Z" fill="#2E5FB9"/>
<path d="M46.753 3.47976C46.7101 3.50079 46.6484 3.47982 46.5808 3.40598C46.628 3.38133 46.681 3.40955 46.753 3.47976Z" fill="#2E5FB9"/>
<path d="M46.9412 3.64425C46.8988 3.66552 46.8369 3.64899 46.7754 3.57901C46.8349 3.5336 46.8836 3.56055 46.9412 3.64425Z" fill="#2E5FB9"/>
<path d="M47.1245 3.81757C47.0811 3.83694 47.0199 3.82028 46.9663 3.74974C47.0287 3.70809 47.073 3.73665 47.1245 3.81757Z" fill="#2E5FB9"/>
<path d="M18.3888 44.9083C18.3743 44.8685 18.4078 44.8157 18.4862 44.7454C18.4996 44.7837 18.4682 44.8395 18.3888 44.9083Z" fill="#0453CC"/>
<path d="M10.8695 42.51C10.8798 42.5571 10.8487 42.6128 10.7668 42.6542C10.7362 42.5836 10.7736 42.5432 10.8695 42.51Z" fill="#2E5FB9"/>
<path d="M18.2098 45.0891C18.1953 45.049 18.229 44.9958 18.308 44.9255C18.3215 44.9643 18.2897 45.0201 18.2098 45.0891Z" fill="#0453CC"/>
<path d="M17.6045 38.4302C17.5513 38.41 17.506 38.3783 17.4497 38.298C17.4308 38.2607 17.4806 38.2035 17.5178 38.196C17.555 38.1884 17.5899 38.2284 17.6011 38.2885C17.6124 38.3486 17.6045 38.4302 17.6045 38.4302Z" fill="#2E5FB9"/>
<path d="M56.4391 54.9927C56.4105 55.0451 56.3818 55.0975 56.3099 55.1658C56.2667 55.1817 56.2391 55.1517 56.248 55.0995C56.2931 55.0013 56.3386 54.9678 56.4048 54.9583C56.4163 54.9697 56.4391 54.9927 56.4391 54.9927Z" fill="#0354CE"/>
<path d="M41.6228 35.199C41.635 35.2384 41.5996 35.2893 41.519 35.3555C41.5076 35.3174 41.5413 35.2639 41.6228 35.199Z" fill="#0856CF"/>
<path d="M56.598 54.7922C56.5806 54.8546 56.5532 54.9077 56.4825 54.9767C56.4391 54.9925 56.4162 54.9695 56.4249 54.9203C56.4683 54.8237 56.5128 54.7886 56.5669 54.7659C56.5669 54.7659 56.588 54.783 56.598 54.7922Z" fill="#0354CE"/>
<path d="M0.443825 19.5779C0.366387 15.9818 0.36471 12.3859 0.366267 8.70557C0.837402 8.82417 1.30529 9.02721 1.83195 9.25575C2.4902 8.26492 3.20416 7.19021 4.03612 5.93788C3.68305 5.23713 2.74746 5.67972 1.79083 5.31726C2.62112 5.0898 3.21791 4.9263 3.88811 4.74269C4.00564 4.90737 4.15233 5.1129 4.43452 5.50828C4.9077 5.0404 5.30228 4.51778 5.81981 4.18822C6.12937 3.99108 6.63138 4.07224 7.0469 4.07208C7.47144 4.07191 7.89701 4.1152 8.32033 4.15741C9.06946 4.2321 9.81723 4.3204 10.5242 4.39843C10.5469 5.15932 9.47017 5.36437 10.2009 6.11096C10.4511 5.80246 10.6787 5.52172 11.0497 5.06429C11.2098 5.58616 11.3203 5.94624 11.4525 6.37739C11.6461 6.31462 11.8757 6.24019 12.1553 6.14955C12.5025 6.70351 12.8911 7.25333 13.6864 6.82753C13.8361 7.99682 13.8404 8.01116 15.0335 7.65712C15.6122 7.48537 15.9202 7.51754 15.7482 8.24956C15.6986 8.4607 15.8182 8.71161 15.8603 8.94428C16.1273 8.8505 16.4654 8.82925 16.6486 8.64986C17.3001 8.01199 18.4719 8.02149 18.7275 8.84205C19.0443 9.85883 19.7177 9.87385 20.5065 9.88526C20.6496 9.88733 20.7921 9.92967 20.9595 9.9575C21.0431 11.2537 19.4942 9.84984 19.5304 10.9947C19.6113 11.0722 19.77 11.2242 19.938 11.4367C17.655 11.4486 15.3628 11.3999 12.9838 11.3494C12.9934 11.5112 13.0099 11.7909 13.0392 12.2862C12.6028 12.0967 12.2408 11.9395 11.8033 11.7496C11.7603 11.7904 11.5849 11.8765 11.5725 11.9817C11.4854 12.7239 11.3851 13.4698 11.3797 14.2151C11.3734 15.0744 11.5127 15.9356 11.4912 16.7936C11.4725 17.5391 11.6107 18.0868 12.4332 18.2641C12.552 18.2897 12.641 18.4541 12.6866 18.6099C12.2481 18.5202 11.8315 18.3735 11.852 19.0202C11.8694 19.5668 11.9776 20.1106 12.0457 20.6556C11.7681 20.8968 11.5237 21.2071 11.2041 21.3609C10.8373 21.5374 10.3461 21.7374 10.0181 21.6206C9.76806 21.5316 9.61881 20.9773 9.54989 20.6068C9.45817 20.1136 9.80031 19.9941 10.2494 19.9079C10.579 19.8447 10.8622 19.5401 11.2867 19.2649C10.7839 18.8792 10.4247 18.6037 9.97283 18.257C9.73544 19.197 9.16174 19.1875 8.42043 19.082C8.06525 19.0314 7.57559 19.3402 7.27249 19.6216C6.43704 20.3972 5.3809 20.5546 4.51618 19.4762C4.84882 19.2211 5.21859 18.9996 5.49987 18.696C5.64288 18.5417 5.72943 18.1966 5.65387 18.0165C5.57551 17.8296 5.2695 17.6258 5.06472 17.6275C4.62884 17.6312 3.9973 17.612 3.79728 17.8722C3.28756 18.5354 2.59313 18.3243 1.98979 18.52C1.71716 18.6084 1.51796 18.9084 1.2698 19.0912C1.03019 19.2677 0.770476 19.4169 0.443825 19.5779ZM9.15237 14.5506C8.87041 14.689 8.59169 14.8345 8.30549 14.9635C8.07321 15.0681 7.73817 15.303 7.60949 15.2226C6.57023 14.5737 5.75847 15.7877 4.78089 15.5402C4.75184 15.5328 4.58671 15.8146 4.59653 15.9537C4.61687 16.2413 4.71241 16.5236 4.8067 16.9387C5.10792 16.8088 5.34752 16.6703 5.60569 16.6025C5.95842 16.5099 6.39341 16.3145 6.67417 16.4366C7.83841 16.9431 8.16768 16.901 9.10022 16.089C9.37336 15.8512 9.83542 15.8407 10.1951 15.6886C10.4566 15.578 10.692 15.406 10.9391 15.2614C10.775 15.0756 10.6438 14.797 10.4396 14.7246C10.0856 14.5992 9.68631 14.6015 9.15237 14.5506ZM6.17262 18.7583C6.12145 18.8071 6.07028 18.856 6.0191 18.9048C6.03935 18.926 6.07608 18.9667 6.07746 18.9655C6.13142 18.9199 6.18217 18.8706 6.17262 18.7583Z" fill="#0160E3"/>
<path d="M34.6749 12.3684C34.1748 12.3281 33.6748 12.2533 33.1747 12.2526C26.6086 12.2429 20.0426 12.2437 13.3931 12.2366C13.6444 12.164 13.979 12.039 14.3141 12.0378C18.2316 12.0231 22.1491 12.0271 26.1509 12.0191C27.1383 12.0162 28.0416 12.0203 29.0992 12.0259C29.4413 12.0235 29.6291 12.0197 29.8168 12.0159C30.3038 12.0184 30.7907 12.0209 31.4425 12.0253C32.398 12.0289 33.19 12.0054 33.9785 12.0477C34.2157 12.0604 34.4431 12.2564 34.6749 12.3684Z" fill="#074DC0"/>
<path d="M34.7492 12.382C34.4431 12.2563 34.2157 12.0603 33.9786 12.0476C33.1901 12.0053 32.398 12.0288 31.5235 12.0208C31.4726 11.9331 31.5267 11.7782 31.5357 11.7808C32.9539 12.1867 34.3507 11.1038 35.7999 11.7467C36.1926 11.921 36.7532 11.7169 37.0359 11.699C37.1656 12.1791 37.2553 12.5115 37.3485 12.9088C37.0283 12.9261 36.699 12.902 36.3822 12.8259C35.8583 12.7001 35.3426 12.5408 34.7492 12.382Z" fill="#0260E1"/>
<path d="M38.8384 21.3569C39.7218 19.492 39.9329 17.5783 39.1479 15.5278C40.0882 16.5661 39.904 17.8766 39.7981 19.1712C39.7813 19.3766 39.7292 19.5791 39.6883 19.9179C39.5716 20.2544 39.46 20.4559 39.3483 20.6575C39.1992 20.8903 39.0501 21.1232 38.8384 21.3569Z" fill="#2E5FB9"/>
<path d="M39.4138 20.658C39.4598 20.456 39.5715 20.2545 39.6894 19.9949C39.9546 19.802 40.2135 19.667 40.5204 19.5071C40.6527 19.7003 40.8141 19.9359 41.1255 20.3907C40.4735 20.4967 39.9765 20.5776 39.4138 20.658Z" fill="#0260E1"/>
<path d="M44.9365 19.3603C45.2339 19.1125 45.5388 18.9308 45.8438 18.749C45.8094 19.1314 45.7751 19.5137 45.7407 19.896C45.6407 19.9148 45.5407 19.9336 45.4407 19.9523C45.2752 19.777 45.1096 19.6017 44.9365 19.3603Z" fill="#0260E1"/>
<path d="M51.4787 18.1411C51.4699 18.4726 51.3855 18.8045 51.255 19.1795C50.9724 18.9538 50.736 18.685 50.4995 18.4162C50.8007 18.3247 51.1019 18.2331 51.4787 18.1411Z" fill="#0260E1"/>
<path d="M37.7789 22.6195C37.7121 22.5487 37.7407 22.5002 37.898 22.4506C38.0812 22.3108 38.1609 22.1873 38.2407 22.0637C38.2407 22.0637 38.2585 22.0886 38.3087 22.0859C38.4418 22.0838 38.5246 22.0844 38.6074 22.085C38.718 22.2195 38.8286 22.354 38.9392 22.4885C38.8052 22.5881 38.6746 22.7639 38.5364 22.7701C38.3099 22.7804 38.0784 22.6804 37.7789 22.6195Z" fill="#0260E1"/>
<path d="M39.1549 15.3954C38.9744 15.2038 38.8007 14.9423 38.6147 14.6221C38.7888 14.8174 38.9753 15.0715 39.1549 15.3954Z" fill="#2E5FB9"/>
<path d="M38.3839 14.1972C38.1157 14.0376 37.8675 13.8153 37.6079 13.5396C37.8657 13.7023 38.1348 13.9183 38.3839 14.1972Z" fill="#2E5FB9"/>
<path d="M38.6181 22.022C38.5246 22.0843 38.4418 22.0836 38.2971 22.0758C38.3827 21.8429 38.5301 21.6173 38.7321 21.3701C38.734 21.5521 38.6814 21.7556 38.6181 22.022Z" fill="#2E5FB9"/>
<path d="M29.7783 11.9731C29.629 12.0197 29.4413 12.0235 29.1833 12.0219C29.3221 11.9878 29.531 11.9591 29.7783 11.9731Z" fill="#0260E1"/>
<path d="M37.3691 22.9379C37.4029 22.8189 37.5013 22.7224 37.6505 22.613C37.7062 22.6849 37.7109 22.7697 37.7103 22.918C37.6147 22.9745 37.5242 22.9675 37.3691 22.9379Z" fill="#2E5FB9"/>
<path d="M38.6088 14.5113C38.5378 14.4987 38.4666 14.4264 38.3799 14.3044C38.4457 14.3204 38.5272 14.3861 38.6088 14.5113Z" fill="#2E5FB9"/>
<path d="M2.01999 41.9745C1.93611 42.0503 1.89087 42.0851 1.83071 42.167C1.38584 42.5433 0.964273 42.8834 0.360107 43.3707C0.360107 38.4541 0.360107 33.7677 0.363319 28.9967C1.85947 28.7071 3.36356 28.5604 4.84169 28.2779C5.94923 28.0662 7.21172 28.4905 7.7997 29.4586C8.33582 30.3412 8.84197 30.6251 9.60894 29.9233C10.8188 28.8162 11.9331 29.5765 13.0835 29.7286C13.875 29.8332 14.647 30.0851 15.4278 30.2711C15.4609 30.1976 15.4941 30.1241 15.5272 30.0506C15.5951 30.2988 15.663 30.547 15.661 30.5395C17.0458 31.1873 18.2536 31.7523 19.5279 32.327C18.177 32.9203 16.75 33.4814 15.3451 34.0934C13.6471 34.833 11.9646 35.6084 10.283 36.3848C9.85933 36.5804 9.46467 36.8389 9.02284 37.1202C8.11284 37.6772 7.23674 38.1823 6.3295 38.7399C6.13742 38.8788 5.97645 38.9652 5.78714 39.1011C5.64159 39.2231 5.52437 39.2956 5.38215 39.4166C4.25486 40.2842 3.15257 41.1034 2.01999 41.9745Z" fill="#025BDC"/>
<path d="M13.373 23.9305C20.235 23.8776 27.1417 23.9217 34.0471 23.8454C35.0951 23.8338 36.137 23.263 37.2442 22.9333C36.6654 23.9374 35.5405 24.0152 34.5778 24.0237C27.5804 24.0854 20.5822 24.0532 13.5842 24.048C13.5286 24.0479 13.473 24.0091 13.373 23.9305Z" fill="#2E5FB9"/>
<path d="M12.1152 20.6475C11.9777 20.1105 11.8694 19.5667 11.852 19.0201C11.8315 18.3734 12.2481 18.5201 12.6968 18.6728C12.764 19.0596 12.8386 19.4594 12.7412 19.8118C12.6573 20.1157 12.3777 20.3656 12.1152 20.6475Z" fill="#0263E6"/>
<path d="M20.8184 31.9328C20.4831 32.1044 20.1099 32.2233 19.6667 32.3404C19.5601 32.0779 19.5235 31.8172 19.4548 31.3274C19.9712 31.5427 20.3759 31.7114 20.8184 31.9328Z" fill="#025BDC"/>
<path d="M24.2579 31.0273C23.9555 31.1506 23.6434 31.2083 23.26 31.2698C23.5404 30.4115 23.7225 30.3579 24.2579 31.0273Z" fill="#025BDC"/>
<path d="M45.0359 28.3723C44.8386 28.4358 44.5847 28.496 44.2612 28.5505C44.4543 28.4862 44.7168 28.4277 45.0359 28.3723Z" fill="#025BDC"/>
<path d="M33.1895 29.0957C33.0505 29.1649 32.8497 29.2268 32.582 29.2878C32.7193 29.2207 32.9235 29.1545 33.1895 29.0957Z" fill="#025BDC"/>
<path d="M48.4739 25.1106C48.4228 25.2124 48.3399 25.2717 48.2043 25.3389C48.2486 25.2539 48.3454 25.161 48.4739 25.1106Z" fill="#025BDC"/>
<path d="M47.4034 26.376C47.3506 26.4774 47.2656 26.5347 47.1282 26.6008C47.1743 26.517 47.2728 26.4244 47.4034 26.376Z" fill="#025BDC"/>
<path d="M0.397399 23.3379C0.365251 23.3234 0.364309 23.2917 0.365547 23.2126C0.400095 23.1969 0.435389 23.2264 0.462308 23.2623C0.467624 23.2694 0.440672 23.3007 0.397399 23.3379Z" fill="#025CDD"/>
<path d="M21.7293 31.7604C21.7475 31.7906 21.6585 31.7999 21.614 31.8045C21.6167 31.7828 21.6639 31.7565 21.7293 31.7604Z" fill="#025BDC"/>
<path d="M0.39859 24.954C0.366113 24.9397 0.364688 24.9078 0.364502 24.8281C0.387037 24.8323 0.408345 24.8844 0.39859 24.954Z" fill="#025BDC"/>
<path d="M56.5719 54.7037C56.5129 54.7887 56.4685 54.8238 56.4135 54.909C56.3386 54.9678 56.2932 55.0013 56.235 55.0839C55.7568 55.0329 55.3005 54.9453 54.8902 54.8666C55.0691 54.3555 55.1933 53.8722 55.4143 53.4382C55.4932 53.2832 55.7987 53.203 56.0142 53.1656C56.6933 53.0477 56.6038 52.737 56.2435 52.2682C55.4768 52.7144 54.7356 53.1457 53.9943 53.5771C54.0349 53.6547 54.0756 53.7323 54.1162 53.8099C53.5059 53.6531 52.8824 53.3283 52.2883 53.3754C51.1458 53.466 49.9737 53.249 48.8498 53.8965C48.3692 54.1734 47.5323 53.8667 46.8642 53.775C45.7218 53.6183 44.5873 53.403 43.4437 53.2588C43.2163 53.2302 42.8835 53.3401 42.7345 53.5068C42.094 54.2238 41.4189 54.4305 40.6023 53.8196C40.5786 53.8018 40.5515 53.7728 40.5271 53.7739C38.8154 53.8526 37.8968 52.2559 36.3975 51.8166C35.5611 51.5716 34.8879 50.8123 34.093 50.3716C33.2398 49.8986 32.98 50.1206 33.0417 51.1298C33.053 51.3137 32.9726 51.5032 32.9221 51.7511C32.5994 51.5258 32.3574 51.3568 32.0475 51.1862C31.9207 50.8129 31.8617 50.4413 31.8462 49.9984C31.8897 49.927 31.9788 49.9262 31.9788 49.9262C32.2182 49.6412 32.6131 49.384 32.6699 49.0664C32.9146 47.6981 33.1592 46.3407 33.8547 45.1116C34.0887 44.6979 34.3286 44.2875 34.619 43.8487C34.8122 44.0779 34.9523 44.334 35.144 44.6846C36.3132 44.3636 37.0391 43.448 37.9161 42.5627C38.0563 42.7249 38.1696 42.9388 38.3474 43.0446C38.7313 43.2732 39.1496 43.612 39.5515 43.6089C40.4905 43.6014 40.8976 44.1509 41.3338 44.8337C41.5765 45.2136 41.9999 45.5214 42.4103 45.7204C42.5131 45.7702 42.8759 45.2703 43.1279 45.0321C43.2426 44.9237 43.3784 44.8375 43.5047 44.7412C43.612 44.889 43.8008 45.0325 43.8089 45.1855C43.8236 45.4637 43.731 45.7476 43.6566 46.1849C45.2751 44.9911 46.0729 46.5589 47.0961 47.0773C48.2188 47.6461 48.2488 47.7767 49.3756 47.0579C49.6217 46.9008 50.0727 46.9119 50.3701 47.0156C51.4937 47.4074 52.4003 47.4183 53.4967 46.6205C54.5871 45.8271 56.0103 45.2772 57.4774 45.8204C57.8623 45.9629 58.3819 46.2955 58.4515 46.6232C58.6089 47.3653 59.129 47.5349 59.7402 47.762C59.686 48.3159 59.5679 48.8645 59.446 49.4867C59.3878 49.6457 59.3333 49.7311 59.2727 49.869C58.8281 50.6733 58.3898 51.4251 57.9245 52.2232C57.6825 52.1278 57.4613 52.0406 56.9997 51.8587C57.2954 52.3848 57.4749 52.7042 57.6542 53.0892C57.3919 53.3189 57.13 53.483 56.7819 53.6295C56.5606 53.6186 56.4256 53.6255 56.2905 53.6323C56.2988 53.6896 56.3071 53.7469 56.3153 53.8042C56.464 53.769 56.6127 53.7339 56.7614 53.6987C56.8167 53.8375 56.872 53.9763 56.9286 54.1713C56.8122 54.3654 56.6945 54.5034 56.5719 54.7037Z" fill="#0257D6"/>
<path d="M60.1004 44.8997C60.1281 45.1563 60.0873 45.4159 60.0197 45.7362C59.4625 45.4751 59.4389 45.1754 60.1004 44.8997Z" fill="#0257D6"/>
<path d="M59.399 39.1304C59.4543 39.2873 59.4548 39.4215 59.4554 39.6229C59.2791 39.5859 59.1028 39.482 58.9265 39.378C59.0658 39.2879 59.205 39.1978 59.399 39.1304Z" fill="#0257D6"/>
<path d="M39.5678 38.4008C39.4585 38.4648 39.3605 38.4818 39.2625 38.4988C39.2662 38.447 39.2672 38.3505 39.2741 38.3501C39.3753 38.3439 39.4773 38.3504 39.5678 38.4008Z" fill="#0856CF"/>
<path d="M39.5215 37.8956C39.6022 37.8609 39.6805 37.8086 39.7646 37.7966C39.8367 37.7863 39.9154 37.8219 39.9922 37.9621C39.8573 37.9688 39.7223 37.9755 39.5545 37.9387C39.5216 37.8952 39.5215 37.8956 39.5215 37.8956Z" fill="#0856CF"/>
<path d="M3.2738 50.3862C3.38905 50.2306 3.49028 50.1355 3.60142 49.9863C4.08246 49.374 4.55356 48.816 5.03473 48.1958C5.36606 47.8479 5.68734 47.5621 6.06043 47.2483C5.98742 47.6867 5.86353 48.1534 5.73748 48.6195C5.61355 49.0777 5.48745 49.5353 5.34938 50.0405C5.62371 50.0548 5.72785 50.0931 5.79397 50.0586C6.48946 49.6956 7.51231 49.6398 8.37012 49.8565C8.66992 49.9323 9.08115 49.9673 9.31845 49.8212C10.3883 49.1622 11.4522 49.101 12.6335 49.504C12.8889 49.5911 13.3089 49.1328 13.6759 48.9811C13.8679 48.9018 14.1096 48.9427 14.3596 48.9874C14.3888 49.1215 14.3872 49.1975 14.3821 49.3305C14.2041 49.5878 14.0296 49.788 13.8468 50.0465C13.3053 50.8998 12.7721 51.6949 12.2284 52.5529C11.2571 54.5177 10.2322 56.3909 9.36118 58.3331C8.89563 59.3712 8.73564 59.6316 7.55054 59.6321C5.51711 59.6329 3.48302 59.6024 1.45055 59.6466C0.650715 59.6639 0.411837 59.4294 0.332657 58.5936C0.107885 56.2211 0.975744 54.2266 2.19005 52.3073C2.31638 52.1076 2.40527 51.8843 2.52087 51.6087C2.77339 51.1791 3.01659 50.8129 3.2738 50.3862Z" fill="#0453CC"/>
<path d="M21.4238 36.6655C21.692 36.4562 22.0104 36.2827 22.3916 36.1006C22.3696 36.3012 22.2848 36.5104 22.169 36.7962C22.4228 36.9818 22.7181 37.1978 23.026 37.423C22.3713 37.8062 22.2322 37.7358 21.4238 36.6655Z" fill="#0257D6"/>
<path d="M23.5558 37.9038C23.8089 37.9294 23.994 37.96 24.1791 37.9907C24.1969 38.0786 24.2147 38.1664 24.2324 38.2543C23.9197 38.3425 23.6069 38.4306 23.2942 38.5188C23.3587 38.3155 23.4232 38.1122 23.5558 37.9038Z" fill="#0257D6"/>
<path d="M30.7843 56.0366C30.8453 56.0839 30.8819 56.1599 30.8912 56.2391C30.8968 56.2876 30.8604 56.3409 30.7929 56.5384C30.7693 56.2892 30.7588 56.178 30.7843 56.0366Z" fill="#0354CE"/>
<path d="M31.976 49.8812C31.9789 49.9262 31.8897 49.927 31.8452 49.9275C31.8296 49.8501 31.8587 49.7722 31.8877 49.6943C31.9162 49.7416 31.9447 49.7889 31.976 49.8812Z" fill="#0354CE"/>
<path d="M17.6442 38.4142C17.6045 38.4302 17.6124 38.3486 17.6188 38.3083C17.6253 38.2679 17.706 38.2635 17.7463 38.2645C17.7682 38.322 17.734 38.3662 17.6442 38.4142Z" fill="#025BDC"/>
<path d="M16.772 38.9675C16.8536 38.8615 16.9998 38.7571 17.1964 38.6309C17.11 38.7291 16.9732 38.849 16.772 38.9675Z" fill="#025BDC"/>
<path d="M38.191 22.0845C38.1608 22.1871 38.0811 22.3107 37.9395 22.4368C37.9655 22.3281 38.0534 22.2167 38.191 22.0845Z" fill="#2E5FB9"/>
<path d="M9.22927 14.5503C9.68639 14.6014 10.0857 14.5991 10.4397 14.7245C10.6439 14.7969 10.7751 15.0755 10.9392 15.2613C10.6921 15.4059 10.4566 15.5779 10.1952 15.6885C9.8355 15.8406 9.37344 15.8511 9.1003 16.0889C8.16776 16.9009 7.83849 16.943 6.67425 16.4365C6.39349 16.3144 5.95849 16.5098 5.60577 16.6024C5.3476 16.6702 5.108 16.8087 4.80677 16.9387C4.71249 16.5235 4.61694 16.2412 4.59661 15.9536C4.58679 15.8145 4.75191 15.5327 4.78097 15.5401C5.75855 15.7876 6.57031 14.5736 7.60957 15.2225C7.73825 15.3029 8.07329 15.068 8.30557 14.9634C8.59176 14.8344 8.87048 14.6889 9.22927 14.5503Z" fill="#0260E1"/>
<path d="M6.20316 18.79C6.18235 18.8706 6.1316 18.92 6.07764 18.9656C6.07626 18.9667 6.03953 18.926 6.01929 18.9048C6.07046 18.856 6.12163 18.8072 6.20316 18.79Z" fill="#0260E1"/>
<path d="M56.7285 53.6553C56.6127 53.734 56.464 53.7691 56.3153 53.8043C56.307 53.747 56.2988 53.6897 56.2905 53.6324C56.4256 53.6255 56.5606 53.6187 56.7285 53.6553Z" fill="#0354CE"/>
</svg>
